name pl07_filtered_grf.mot
datacolumns 37
datarows 10
range 0.910000 0.914500
endheader
time	1_ground_force_vx	1_ground_force_vy	1_ground_force_vz	1_ground_force_px	1_ground_force_py	1_ground_force_pz	1_ground_torque_x	1_ground_torque_y	1_ground_torque_z	2_ground_force_vx	2_ground_force_vy	2_ground_force_vz	2_ground_force_px	2_ground_force_py	2_ground_force_pz	2_ground_torque_x	2_ground_torque_y	2_ground_torque_z	3_ground_force_vx	3_ground_force_vy	3_ground_force_vz	3_ground_force_px	3_ground_force_py	3_ground_force_pz	3_ground_torque_x	3_ground_torque_y	3_ground_torque_z	4_ground_force_vx	4_ground_force_vy	4_ground_force_vz	4_ground_force_px	4_ground_force_py	4_ground_force_pz	4_ground_torque_x	4_ground_torque_y	4_ground_torque_z
            0.910000	          -24.691181	         1022.007146	          146.185523	            0.135679	            0.000000	            0.183265	           -0.726229	           30.059781	            4.299681	           74.124617	          924.968826	          211.890591	           -0.195506	            0.000000	            0.199656	            2.964715	           36.995392	            8.474854	           -0.300787	           -0.486091	           -1.738745	            0.413369	            1.262957	            1.874241	            0.041295	           -0.012709	            0.032471	           -1.552764	           -1.617550	           -2.875282	           -0.353265	            1.255940	            1.901517	            0.029873	           -0.017621	            0.036338
            0.910500	          -24.776338	         1020.419664	          146.835926	            0.135646	            0.000000	            0.183124	           -0.727149	           29.947828	            4.309420	           75.033942	          927.218401	          211.157336	           -0.195574	            0.000000	            0.199795	            2.999144	           37.061384	            8.440065	           -0.311614	           -0.479687	           -1.754925	            0.413369	            1.262960	            1.874253	            0.041501	           -0.012770	            0.032568	           -1.556142	           -1.608364	           -2.894941	           -0.353269	            1.255942	            1.901535	            0.029707	           -0.017543	            0.035974
            0.911000	          -24.867399	         1018.780823	          147.519332	            0.135611	            0.000000	            0.182980	           -0.728214	           29.833856	            4.319939	           75.950457	          929.476042	          210.426662	           -0.195642	            0.000000	            0.199933	            3.033905	           37.128706	            8.405671	           -0.322909	           -0.472918	           -1.770590	            0.413370	            1.262962	            1.874266	            0.041698	           -0.012813	            0.032656	           -1.559506	           -1.599036	           -2.914371	           -0.353272	            1.255944	            1.901553	            0.029538	           -0.017464	            0.035618
            0.911500	          -24.964231	         1017.093826	          148.236216	            0.135573	            0.000000	            0.182832	           -0.729418	           29.717985	            4.331244	           76.873495	          931.739983	          209.699171	           -0.195711	            0.000000	            0.200071	            3.068977	           37.197327	            8.371701	           -0.334642	           -0.465799	           -1.785698	            0.413371	            1.262964	            1.874278	            0.041886	           -0.012839	            0.032734	           -1.562832	           -1.589602	           -2.933552	           -0.353275	            1.255946	            1.901570	            0.029367	           -0.017384	            0.035272
            0.912000	          -25.066700	         1015.361939	          148.987046	            0.135533	            0.000000	            0.182681	           -0.730757	           29.600333	            4.343344	           77.802363	          934.008407	          208.975461	           -0.195780	            0.000000	            0.200208	            3.104337	           37.267213	            8.338183	           -0.346779	           -0.458346	           -1.800210	            0.413371	            1.262967	            1.874290	            0.042063	           -0.012851	            0.032803	           -1.566094	           -1.580103	           -2.952463	           -0.353278	            1.255948	            1.901588	            0.029195	           -0.017302	            0.034937
            0.912500	          -25.174670	         1013.588487	          149.772280	            0.135491	            0.000000	            0.182527	           -0.732225	           29.481018	            4.356245	           78.736340	          936.279452	          208.256128	           -0.195850	            0.000000	            0.200346	            3.139963	           37.338325	            8.305143	           -0.359284	           -0.450576	           -1.814087	            0.413372	            1.262969	            1.874303	            0.042227	           -0.012848	            0.032863	           -1.569271	           -1.570579	           -2.971087	           -0.353282	            1.255950	            1.901605	            0.029022	           -0.017215	            0.034612
            0.913000	          -25.288006	         1011.776846	          150.592364	            0.135446	            0.000000	            0.182370	           -0.733818	           29.360157	            4.369951	           79.674684	          938.551210	          207.541758	           -0.195920	            0.000000	            0.200482	            3.175830	           37.410620	            8.272607	           -0.372109	           -0.442521	           -1.827294	            0.413372	            1.262971	            1.874315	            0.042377	           -0.012832	            0.032915	           -1.572363	           -1.561066	           -2.989396	           -0.353285	            1.255953	            1.901622	            0.028849	           -0.017124	            0.034298
            0.913500	          -25.406575	         1009.930432	          151.447721	            0.135399	            0.000000	            0.182209	           -0.735530	           29.237866	            4.384468	           80.616628	          940.821733	          206.832937	           -0.195991	            0.000000	            0.200617	            3.211913	           37.484051	            8.240601	           -0.385221	           -0.434184	           -1.839802	            0.413372	            1.262973	            1.874326	            0.042512	           -0.012806	            0.032958	           -1.575326	           -1.551613	           -3.007383	           -0.353289	            1.255955	            1.901638	            0.028676	           -0.017026	            0.033996
            0.914000	          -25.530242	         1008.052698	          152.338756	            0.135350	            0.000000	            0.182046	           -0.737356	           29.114260	            4.399800	           81.561381	          943.089032	          206.130243	           -0.196062	            0.000000	            0.200751	            3.248186	           37.558568	            8.209147	           -0.398576	           -0.425584	           -1.851581	            0.413372	            1.262975	            1.874338	            0.042631	           -0.012770	            0.032992	           -1.578139	           -1.542265	           -3.025033	           -0.353293	            1.255958	            1.901655	            0.028503	           -0.016921	            0.033706
            0.914500	          -25.658872	         1006.147125	          153.265841	            0.135298	            0.000000	            0.181879	           -0.739292	           28.989454	            4.415948	           82.508133	          945.351088	          205.434253	           -0.196133	            0.000000	            0.200884	            3.284622	           37.634118	            8.178270	           -0.412127	           -0.416738	           -1.862605	            0.413372	            1.262977	            1.874350	            0.042732	           -0.012726	            0.033018	           -1.580783	           -1.533064	           -3.042332	           -0.353296	            1.255961	            1.901671	            0.028332	           -0.016809	            0.033429
